<?xml version="1.0" encoding="UTF-8" ?>
<svg version="1.1" width="64" height="64" xmlns="http://www.w3.org/2000/svg" shape-rendering="crispEdges">
<rect x="7" y="0" width="1" height="1" fill="#9BADB7" />
<rect x="8" y="0" width="1" height="1" fill="#9BADB7" />
<rect x="39" y="0" width="1" height="1" fill="#9BADB7" />
<rect x="40" y="0" width="1" height="1" fill="#9BADB7" />
<rect x="6" y="1" width="1" height="1" fill="#9BADB7" />
<rect x="7" y="1" width="1" height="1" fill="#9BADB7" />
<rect x="8" y="1" width="1" height="1" fill="#9BADB7" />
<rect x="9" y="1" width="1" height="1" fill="#9BADB7" />
<rect x="38" y="1" width="1" height="1" fill="#9BADB7" />
<rect x="39" y="1" width="1" height="1" fill="#9BADB7" />
<rect x="40" y="1" width="1" height="1" fill="#9BADB7" />
<rect x="41" y="1" width="1" height="1" fill="#9BADB7" />
<rect x="6" y="2" width="1" height="1" fill="#9BADB7" />
<rect x="7" y="2" width="1" height="1" fill="#9BADB7" />
<rect x="8" y="2" width="1" height="1" fill="#9BADB7" />
<rect x="9" y="2" width="1" height="1" fill="#9BADB7" />
<rect x="38" y="2" width="1" height="1" fill="#9BADB7" />
<rect x="39" y="2" width="1" height="1" fill="#9BADB7" />
<rect x="40" y="2" width="1" height="1" fill="#9BADB7" />
<rect x="41" y="2" width="1" height="1" fill="#9BADB7" />
<rect x="5" y="3" width="1" height="1" fill="#9BADB7" />
<rect x="6" y="3" width="1" height="1" fill="#9BADB7" />
<rect x="7" y="3" width="1" height="1" fill="#9BADB7" />
<rect x="8" y="3" width="1" height="1" fill="#9BADB7" />
<rect x="9" y="3" width="1" height="1" fill="#9BADB7" />
<rect x="10" y="3" width="1" height="1" fill="#9BADB7" />
<rect x="37" y="3" width="1" height="1" fill="#9BADB7" />
<rect x="38" y="3" width="1" height="1" fill="#9BADB7" />
<rect x="39" y="3" width="1" height="1" fill="#9BADB7" />
<rect x="40" y="3" width="1" height="1" fill="#9BADB7" />
<rect x="41" y="3" width="1" height="1" fill="#9BADB7" />
<rect x="42" y="3" width="1" height="1" fill="#9BADB7" />
<rect x="4" y="4" width="1" height="1" fill="#9BADB7" />
<rect x="5" y="4" width="1" height="1" fill="#9BADB7" />
<rect x="6" y="4" width="1" height="1" fill="#9BADB7" />
<rect x="7" y="4" width="1" height="1" fill="#9BADB7" />
<rect x="8" y="4" width="1" height="1" fill="#9BADB7" />
<rect x="9" y="4" width="1" height="1" fill="#9BADB7" />
<rect x="10" y="4" width="1" height="1" fill="#9BADB7" />
<rect x="11" y="4" width="1" height="1" fill="#9BADB7" />
<rect x="36" y="4" width="1" height="1" fill="#9BADB7" />
<rect x="37" y="4" width="1" height="1" fill="#9BADB7" />
<rect x="38" y="4" width="1" height="1" fill="#9BADB7" />
<rect x="39" y="4" width="1" height="1" fill="#9BADB7" />
<rect x="40" y="4" width="1" height="1" fill="#9BADB7" />
<rect x="41" y="4" width="1" height="1" fill="#9BADB7" />
<rect x="42" y="4" width="1" height="1" fill="#9BADB7" />
<rect x="43" y="4" width="1" height="1" fill="#9BADB7" />
<rect x="4" y="5" width="1" height="1" fill="#9BADB7" />
<rect x="5" y="5" width="1" height="1" fill="#9BADB7" />
<rect x="6" y="5" width="1" height="1" fill="#9BADB7" />
<rect x="7" y="5" width="1" height="1" fill="#9BADB7" />
<rect x="8" y="5" width="1" height="1" fill="#9BADB7" />
<rect x="9" y="5" width="1" height="1" fill="#9BADB7" />
<rect x="10" y="5" width="1" height="1" fill="#9BADB7" />
<rect x="11" y="5" width="1" height="1" fill="#9BADB7" />
<rect x="36" y="5" width="1" height="1" fill="#9BADB7" />
<rect x="37" y="5" width="1" height="1" fill="#9BADB7" />
<rect x="38" y="5" width="1" height="1" fill="#9BADB7" />
<rect x="39" y="5" width="1" height="1" fill="#9BADB7" />
<rect x="40" y="5" width="1" height="1" fill="#9BADB7" />
<rect x="41" y="5" width="1" height="1" fill="#9BADB7" />
<rect x="42" y="5" width="1" height="1" fill="#9BADB7" />
<rect x="43" y="5" width="1" height="1" fill="#9BADB7" />
<rect x="3" y="6" width="1" height="1" fill="#9BADB7" />
<rect x="4" y="6" width="1" height="1" fill="#9BADB7" />
<rect x="5" y="6" width="1" height="1" fill="#9BADB7" />
<rect x="6" y="6" width="1" height="1" fill="#9BADB7" />
<rect x="7" y="6" width="1" height="1" fill="#9BADB7" />
<rect x="8" y="6" width="1" height="1" fill="#9BADB7" />
<rect x="9" y="6" width="1" height="1" fill="#9BADB7" />
<rect x="10" y="6" width="1" height="1" fill="#9BADB7" />
<rect x="11" y="6" width="1" height="1" fill="#9BADB7" />
<rect x="12" y="6" width="1" height="1" fill="#9BADB7" />
<rect x="35" y="6" width="1" height="1" fill="#9BADB7" />
<rect x="36" y="6" width="1" height="1" fill="#9BADB7" />
<rect x="37" y="6" width="1" height="1" fill="#9BADB7" />
<rect x="38" y="6" width="1" height="1" fill="#9BADB7" />
<rect x="39" y="6" width="1" height="1" fill="#9BADB7" />
<rect x="40" y="6" width="1" height="1" fill="#9BADB7" />
<rect x="41" y="6" width="1" height="1" fill="#9BADB7" />
<rect x="42" y="6" width="1" height="1" fill="#9BADB7" />
<rect x="43" y="6" width="1" height="1" fill="#9BADB7" />
<rect x="44" y="6" width="1" height="1" fill="#9BADB7" />
<rect x="3" y="7" width="1" height="1" fill="#9BADB7" />
<rect x="4" y="7" width="1" height="1" fill="#9BADB7" />
<rect x="5" y="7" width="1" height="1" fill="#9BADB7" />
<rect x="6" y="7" width="1" height="1" fill="#9BADB7" />
<rect x="7" y="7" width="1" height="1" fill="#9BADB7" />
<rect x="8" y="7" width="1" height="1" fill="#9BADB7" />
<rect x="9" y="7" width="1" height="1" fill="#9BADB7" />
<rect x="10" y="7" width="1" height="1" fill="#9BADB7" />
<rect x="11" y="7" width="1" height="1" fill="#9BADB7" />
<rect x="12" y="7" width="1" height="1" fill="#9BADB7" />
<rect x="35" y="7" width="1" height="1" fill="#9BADB7" />
<rect x="36" y="7" width="1" height="1" fill="#9BADB7" />
<rect x="37" y="7" width="1" height="1" fill="#9BADB7" />
<rect x="38" y="7" width="1" height="1" fill="#9BADB7" />
<rect x="39" y="7" width="1" height="1" fill="#9BADB7" />
<rect x="40" y="7" width="1" height="1" fill="#9BADB7" />
<rect x="41" y="7" width="1" height="1" fill="#9BADB7" />
<rect x="42" y="7" width="1" height="1" fill="#9BADB7" />
<rect x="43" y="7" width="1" height="1" fill="#9BADB7" />
<rect x="44" y="7" width="1" height="1" fill="#9BADB7" />
<rect x="2" y="8" width="1" height="1" fill="#9BADB7" />
<rect x="3" y="8" width="1" height="1" fill="#9BADB7" />
<rect x="4" y="8" width="1" height="1" fill="#9BADB7" />
<rect x="5" y="8" width="1" height="1" fill="#9BADB7" />
<rect x="6" y="8" width="1" height="1" fill="#9BADB7" />
<rect x="7" y="8" width="1" height="1" fill="#9BADB7" />
<rect x="8" y="8" width="1" height="1" fill="#9BADB7" />
<rect x="9" y="8" width="1" height="1" fill="#9BADB7" />
<rect x="10" y="8" width="1" height="1" fill="#9BADB7" />
<rect x="11" y="8" width="1" height="1" fill="#9BADB7" />
<rect x="12" y="8" width="1" height="1" fill="#9BADB7" />
<rect x="13" y="8" width="1" height="1" fill="#9BADB7" />
<rect x="34" y="8" width="1" height="1" fill="#9BADB7" />
<rect x="35" y="8" width="1" height="1" fill="#9BADB7" />
<rect x="36" y="8" width="1" height="1" fill="#9BADB7" />
<rect x="37" y="8" width="1" height="1" fill="#9BADB7" />
<rect x="38" y="8" width="1" height="1" fill="#9BADB7" />
<rect x="39" y="8" width="1" height="1" fill="#9BADB7" />
<rect x="40" y="8" width="1" height="1" fill="#9BADB7" />
<rect x="41" y="8" width="1" height="1" fill="#9BADB7" />
<rect x="42" y="8" width="1" height="1" fill="#9BADB7" />
<rect x="43" y="8" width="1" height="1" fill="#9BADB7" />
<rect x="44" y="8" width="1" height="1" fill="#9BADB7" />
<rect x="45" y="8" width="1" height="1" fill="#9BADB7" />
<rect x="1" y="9" width="1" height="1" fill="#9BADB7" />
<rect x="2" y="9" width="1" height="1" fill="#9BADB7" />
<rect x="3" y="9" width="1" height="1" fill="#9BADB7" />
<rect x="4" y="9" width="1" height="1" fill="#9BADB7" />
<rect x="5" y="9" width="1" height="1" fill="#9BADB7" />
<rect x="6" y="9" width="1" height="1" fill="#9BADB7" />
<rect x="7" y="9" width="1" height="1" fill="#9BADB7" />
<rect x="8" y="9" width="1" height="1" fill="#9BADB7" />
<rect x="9" y="9" width="1" height="1" fill="#9BADB7" />
<rect x="10" y="9" width="1" height="1" fill="#9BADB7" />
<rect x="11" y="9" width="1" height="1" fill="#9BADB7" />
<rect x="12" y="9" width="1" height="1" fill="#9BADB7" />
<rect x="13" y="9" width="1" height="1" fill="#9BADB7" />
<rect x="14" y="9" width="1" height="1" fill="#9BADB7" />
<rect x="33" y="9" width="1" height="1" fill="#9BADB7" />
<rect x="34" y="9" width="1" height="1" fill="#9BADB7" />
<rect x="35" y="9" width="1" height="1" fill="#9BADB7" />
<rect x="36" y="9" width="1" height="1" fill="#9BADB7" />
<rect x="37" y="9" width="1" height="1" fill="#9BADB7" />
<rect x="38" y="9" width="1" height="1" fill="#9BADB7" />
<rect x="39" y="9" width="1" height="1" fill="#9BADB7" />
<rect x="40" y="9" width="1" height="1" fill="#9BADB7" />
<rect x="41" y="9" width="1" height="1" fill="#9BADB7" />
<rect x="42" y="9" width="1" height="1" fill="#9BADB7" />
<rect x="43" y="9" width="1" height="1" fill="#9BADB7" />
<rect x="44" y="9" width="1" height="1" fill="#9BADB7" />
<rect x="45" y="9" width="1" height="1" fill="#9BADB7" />
<rect x="46" y="9" width="1" height="1" fill="#9BADB7" />
<rect x="1" y="10" width="1" height="1" fill="#9BADB7" />
<rect x="2" y="10" width="1" height="1" fill="#9BADB7" />
<rect x="3" y="10" width="1" height="1" fill="#9BADB7" />
<rect x="4" y="10" width="1" height="1" fill="#9BADB7" />
<rect x="5" y="10" width="1" height="1" fill="#9BADB7" />
<rect x="6" y="10" width="1" height="1" fill="#9BADB7" />
<rect x="7" y="10" width="1" height="1" fill="#9BADB7" />
<rect x="8" y="10" width="1" height="1" fill="#9BADB7" />
<rect x="9" y="10" width="1" height="1" fill="#9BADB7" />
<rect x="10" y="10" width="1" height="1" fill="#9BADB7" />
<rect x="11" y="10" width="1" height="1" fill="#9BADB7" />
<rect x="12" y="10" width="1" height="1" fill="#9BADB7" />
<rect x="13" y="10" width="1" height="1" fill="#9BADB7" />
<rect x="14" y="10" width="1" height="1" fill="#9BADB7" />
<rect x="33" y="10" width="1" height="1" fill="#9BADB7" />
<rect x="34" y="10" width="1" height="1" fill="#9BADB7" />
<rect x="35" y="10" width="1" height="1" fill="#9BADB7" />
<rect x="36" y="10" width="1" height="1" fill="#9BADB7" />
<rect x="37" y="10" width="1" height="1" fill="#9BADB7" />
<rect x="38" y="10" width="1" height="1" fill="#9BADB7" />
<rect x="39" y="10" width="1" height="1" fill="#9BADB7" />
<rect x="40" y="10" width="1" height="1" fill="#9BADB7" />
<rect x="41" y="10" width="1" height="1" fill="#9BADB7" />
<rect x="42" y="10" width="1" height="1" fill="#9BADB7" />
<rect x="43" y="10" width="1" height="1" fill="#9BADB7" />
<rect x="44" y="10" width="1" height="1" fill="#9BADB7" />
<rect x="45" y="10" width="1" height="1" fill="#9BADB7" />
<rect x="46" y="10" width="1" height="1" fill="#9BADB7" />
<rect x="0" y="11" width="1" height="1" fill="#9BADB7" />
<rect x="1" y="11" width="1" height="1" fill="#9BADB7" />
<rect x="2" y="11" width="1" height="1" fill="#9BADB7" />
<rect x="3" y="11" width="1" height="1" fill="#9BADB7" />
<rect x="4" y="11" width="1" height="1" fill="#9BADB7" />
<rect x="5" y="11" width="1" height="1" fill="#9BADB7" />
<rect x="6" y="11" width="1" height="1" fill="#9BADB7" />
<rect x="7" y="11" width="1" height="1" fill="#9BADB7" />
<rect x="8" y="11" width="1" height="1" fill="#9BADB7" />
<rect x="9" y="11" width="1" height="1" fill="#9BADB7" />
<rect x="10" y="11" width="1" height="1" fill="#9BADB7" />
<rect x="11" y="11" width="1" height="1" fill="#9BADB7" />
<rect x="12" y="11" width="1" height="1" fill="#9BADB7" />
<rect x="13" y="11" width="1" height="1" fill="#9BADB7" />
<rect x="14" y="11" width="1" height="1" fill="#9BADB7" />
<rect x="15" y="11" width="1" height="1" fill="#9BADB7" />
<rect x="32" y="11" width="1" height="1" fill="#9BADB7" />
<rect x="33" y="11" width="1" height="1" fill="#9BADB7" />
<rect x="34" y="11" width="1" height="1" fill="#9BADB7" />
<rect x="35" y="11" width="1" height="1" fill="#9BADB7" />
<rect x="36" y="11" width="1" height="1" fill="#9BADB7" />
<rect x="37" y="11" width="1" height="1" fill="#9BADB7" />
<rect x="38" y="11" width="1" height="1" fill="#9BADB7" />
<rect x="39" y="11" width="1" height="1" fill="#9BADB7" />
<rect x="40" y="11" width="1" height="1" fill="#9BADB7" />
<rect x="41" y="11" width="1" height="1" fill="#9BADB7" />
<rect x="42" y="11" width="1" height="1" fill="#9BADB7" />
<rect x="43" y="11" width="1" height="1" fill="#9BADB7" />
<rect x="44" y="11" width="1" height="1" fill="#9BADB7" />
<rect x="45" y="11" width="1" height="1" fill="#9BADB7" />
<rect x="46" y="11" width="1" height="1" fill="#9BADB7" />
<rect x="47" y="11" width="1" height="1" fill="#9BADB7" />
<rect x="2" y="13" width="1" height="1" fill="#9BADB7" />
<rect x="5" y="13" width="1" height="1" fill="#9BADB7" />
<rect x="8" y="13" width="1" height="1" fill="#9BADB7" />
<rect x="11" y="13" width="1" height="1" fill="#9BADB7" />
<rect x="14" y="13" width="1" height="1" fill="#9BADB7" />
<rect x="33" y="13" width="1" height="1" fill="#9BADB7" />
<rect x="37" y="13" width="1" height="1" fill="#9BADB7" />
<rect x="42" y="13" width="1" height="1" fill="#9BADB7" />
<rect x="46" y="13" width="1" height="1" fill="#9BADB7" />
<rect x="1" y="14" width="1" height="1" fill="#9BADB7" />
<rect x="4" y="14" width="1" height="1" fill="#9BADB7" />
<rect x="7" y="14" width="1" height="1" fill="#9BADB7" />
<rect x="10" y="14" width="1" height="1" fill="#9BADB7" />
<rect x="13" y="14" width="1" height="1" fill="#9BADB7" />
<rect x="32" y="14" width="1" height="1" fill="#9BADB7" />
<rect x="34" y="14" width="1" height="1" fill="#9BADB7" />
<rect x="36" y="14" width="1" height="1" fill="#9BADB7" />
<rect x="38" y="14" width="1" height="1" fill="#9BADB7" />
<rect x="41" y="14" width="1" height="1" fill="#9BADB7" />
<rect x="43" y="14" width="1" height="1" fill="#9BADB7" />
<rect x="45" y="14" width="1" height="1" fill="#9BADB7" />
<rect x="47" y="14" width="1" height="1" fill="#9BADB7" />
<rect x="0" y="15" width="1" height="1" fill="#9BADB7" />
<rect x="3" y="15" width="1" height="1" fill="#9BADB7" />
<rect x="6" y="15" width="1" height="1" fill="#9BADB7" />
<rect x="9" y="15" width="1" height="1" fill="#9BADB7" />
<rect x="12" y="15" width="1" height="1" fill="#9BADB7" />
<rect x="33" y="15" width="1" height="1" fill="#9BADB7" />
<rect x="37" y="15" width="1" height="1" fill="#9BADB7" />
<rect x="42" y="15" width="1" height="1" fill="#9BADB7" />
<rect x="46" y="15" width="1" height="1" fill="#9BADB7" />
<rect x="0" y="32" width="1" height="1" fill="#9BADB7" />
<rect x="1" y="32" width="1" height="1" fill="#9BADB7" />
<rect x="2" y="32" width="1" height="1" fill="#9BADB7" />
<rect x="3" y="32" width="1" height="1" fill="#9BADB7" />
<rect x="4" y="32" width="1" height="1" fill="#9BADB7" />
<rect x="5" y="32" width="1" height="1" fill="#9BADB7" />
<rect x="6" y="32" width="1" height="1" fill="#9BADB7" />
<rect x="7" y="32" width="1" height="1" fill="#9BADB7" />
<rect x="8" y="32" width="1" height="1" fill="#9BADB7" />
<rect x="9" y="32" width="1" height="1" fill="#9BADB7" />
<rect x="10" y="32" width="1" height="1" fill="#9BADB7" />
<rect x="11" y="32" width="1" height="1" fill="#9BADB7" />
<rect x="12" y="32" width="1" height="1" fill="#9BADB7" />
<rect x="13" y="32" width="1" height="1" fill="#9BADB7" />
<rect x="14" y="32" width="1" height="1" fill="#9BADB7" />
<rect x="15" y="32" width="1" height="1" fill="#9BADB7" />
<rect x="32" y="32" width="1" height="1" fill="#9BADB7" />
<rect x="33" y="32" width="1" height="1" fill="#9BADB7" />
<rect x="34" y="32" width="1" height="1" fill="#9BADB7" />
<rect x="35" y="32" width="1" height="1" fill="#9BADB7" />
<rect x="36" y="32" width="1" height="1" fill="#9BADB7" />
<rect x="37" y="32" width="1" height="1" fill="#9BADB7" />
<rect x="38" y="32" width="1" height="1" fill="#9BADB7" />
<rect x="39" y="32" width="1" height="1" fill="#9BADB7" />
<rect x="40" y="32" width="1" height="1" fill="#9BADB7" />
<rect x="41" y="32" width="1" height="1" fill="#9BADB7" />
<rect x="42" y="32" width="1" height="1" fill="#9BADB7" />
<rect x="43" y="32" width="1" height="1" fill="#9BADB7" />
<rect x="44" y="32" width="1" height="1" fill="#9BADB7" />
<rect x="45" y="32" width="1" height="1" fill="#9BADB7" />
<rect x="46" y="32" width="1" height="1" fill="#9BADB7" />
<rect x="47" y="32" width="1" height="1" fill="#9BADB7" />
<rect x="0" y="33" width="1" height="1" fill="#9BADB7" />
<rect x="1" y="33" width="1" height="1" fill="#9BADB7" />
<rect x="2" y="33" width="1" height="1" fill="#9BADB7" />
<rect x="3" y="33" width="1" height="1" fill="#9BADB7" />
<rect x="4" y="33" width="1" height="1" fill="#9BADB7" />
<rect x="5" y="33" width="1" height="1" fill="#9BADB7" />
<rect x="6" y="33" width="1" height="1" fill="#9BADB7" />
<rect x="7" y="33" width="1" height="1" fill="#9BADB7" />
<rect x="8" y="33" width="1" height="1" fill="#9BADB7" />
<rect x="9" y="33" width="1" height="1" fill="#9BADB7" />
<rect x="10" y="33" width="1" height="1" fill="#9BADB7" />
<rect x="11" y="33" width="1" height="1" fill="#9BADB7" />
<rect x="12" y="33" width="1" height="1" fill="#9BADB7" />
<rect x="13" y="33" width="1" height="1" fill="#9BADB7" />
<rect x="14" y="33" width="1" height="1" fill="#9BADB7" />
<rect x="15" y="33" width="1" height="1" fill="#9BADB7" />
<rect x="32" y="33" width="1" height="1" fill="#9BADB7" />
<rect x="33" y="33" width="1" height="1" fill="#9BADB7" />
<rect x="34" y="33" width="1" height="1" fill="#9BADB7" />
<rect x="35" y="33" width="1" height="1" fill="#9BADB7" />
<rect x="36" y="33" width="1" height="1" fill="#9BADB7" />
<rect x="37" y="33" width="1" height="1" fill="#9BADB7" />
<rect x="38" y="33" width="1" height="1" fill="#9BADB7" />
<rect x="39" y="33" width="1" height="1" fill="#9BADB7" />
<rect x="40" y="33" width="1" height="1" fill="#9BADB7" />
<rect x="41" y="33" width="1" height="1" fill="#9BADB7" />
<rect x="42" y="33" width="1" height="1" fill="#9BADB7" />
<rect x="43" y="33" width="1" height="1" fill="#9BADB7" />
<rect x="44" y="33" width="1" height="1" fill="#9BADB7" />
<rect x="45" y="33" width="1" height="1" fill="#9BADB7" />
<rect x="46" y="33" width="1" height="1" fill="#9BADB7" />
<rect x="47" y="33" width="1" height="1" fill="#9BADB7" />
<rect x="0" y="34" width="1" height="1" fill="#9BADB7" />
<rect x="1" y="34" width="1" height="1" fill="#9BADB7" />
<rect x="2" y="34" width="1" height="1" fill="#9BADB7" />
<rect x="3" y="34" width="1" height="1" fill="#9BADB7" />
<rect x="4" y="34" width="1" height="1" fill="#9BADB7" />
<rect x="5" y="34" width="1" height="1" fill="#9BADB7" />
<rect x="6" y="34" width="1" height="1" fill="#9BADB7" />
<rect x="7" y="34" width="1" height="1" fill="#9BADB7" />
<rect x="8" y="34" width="1" height="1" fill="#9BADB7" />
<rect x="9" y="34" width="1" height="1" fill="#9BADB7" />
<rect x="10" y="34" width="1" height="1" fill="#9BADB7" />
<rect x="11" y="34" width="1" height="1" fill="#9BADB7" />
<rect x="12" y="34" width="1" height="1" fill="#9BADB7" />
<rect x="13" y="34" width="1" height="1" fill="#9BADB7" />
<rect x="14" y="34" width="1" height="1" fill="#9BADB7" />
<rect x="15" y="34" width="1" height="1" fill="#9BADB7" />
<rect x="32" y="34" width="1" height="1" fill="#9BADB7" />
<rect x="33" y="34" width="1" height="1" fill="#9BADB7" />
<rect x="34" y="34" width="1" height="1" fill="#9BADB7" />
<rect x="35" y="34" width="1" height="1" fill="#9BADB7" />
<rect x="36" y="34" width="1" height="1" fill="#9BADB7" />
<rect x="37" y="34" width="1" height="1" fill="#9BADB7" />
<rect x="38" y="34" width="1" height="1" fill="#9BADB7" />
<rect x="39" y="34" width="1" height="1" fill="#9BADB7" />
<rect x="40" y="34" width="1" height="1" fill="#9BADB7" />
<rect x="41" y="34" width="1" height="1" fill="#9BADB7" />
<rect x="42" y="34" width="1" height="1" fill="#9BADB7" />
<rect x="43" y="34" width="1" height="1" fill="#9BADB7" />
<rect x="44" y="34" width="1" height="1" fill="#9BADB7" />
<rect x="45" y="34" width="1" height="1" fill="#9BADB7" />
<rect x="46" y="34" width="1" height="1" fill="#9BADB7" />
<rect x="47" y="34" width="1" height="1" fill="#9BADB7" />
<rect x="32" y="35" width="1" height="1" fill="#9BADB7" />
<rect x="33" y="35" width="1" height="1" fill="#9BADB7" />
<rect x="34" y="35" width="1" height="1" fill="#9BADB7" />
<rect x="35" y="35" width="1" height="1" fill="#9BADB7" />
<rect x="36" y="35" width="1" height="1" fill="#9BADB7" />
<rect x="37" y="35" width="1" height="1" fill="#9BADB7" />
<rect x="38" y="35" width="1" height="1" fill="#9BADB7" />
<rect x="39" y="35" width="1" height="1" fill="#9BADB7" />
<rect x="40" y="35" width="1" height="1" fill="#9BADB7" />
<rect x="41" y="35" width="1" height="1" fill="#9BADB7" />
<rect x="42" y="35" width="1" height="1" fill="#9BADB7" />
<rect x="43" y="35" width="1" height="1" fill="#9BADB7" />
<rect x="44" y="35" width="1" height="1" fill="#9BADB7" />
<rect x="45" y="35" width="1" height="1" fill="#9BADB7" />
<rect x="46" y="35" width="1" height="1" fill="#9BADB7" />
<rect x="47" y="35" width="1" height="1" fill="#9BADB7" />
<rect x="1" y="36" width="1" height="1" fill="#9BADB7" />
<rect x="4" y="36" width="1" height="1" fill="#9BADB7" />
<rect x="7" y="36" width="1" height="1" fill="#9BADB7" />
<rect x="10" y="36" width="1" height="1" fill="#9BADB7" />
<rect x="13" y="36" width="1" height="1" fill="#9BADB7" />
<rect x="0" y="37" width="1" height="1" fill="#9BADB7" />
<rect x="3" y="37" width="1" height="1" fill="#9BADB7" />
<rect x="6" y="37" width="1" height="1" fill="#9BADB7" />
<rect x="9" y="37" width="1" height="1" fill="#9BADB7" />
<rect x="12" y="37" width="1" height="1" fill="#9BADB7" />
<rect x="15" y="37" width="1" height="1" fill="#9BADB7" />
<rect x="2" y="38" width="1" height="1" fill="#9BADB7" />
<rect x="5" y="38" width="1" height="1" fill="#9BADB7" />
<rect x="8" y="38" width="1" height="1" fill="#9BADB7" />
<rect x="11" y="38" width="1" height="1" fill="#9BADB7" />
<rect x="14" y="38" width="1" height="1" fill="#9BADB7" />
</svg>