<?xml version="1.0" encoding="UTF-8" ?>
<svg version="1.1" width="32" height="32" xmlns="http://www.w3.org/2000/svg" shape-rendering="crispEdges">
<rect x="15" y="0" width="1" height="1" fill="#9BADB7" />
<rect x="16" y="0" width="1" height="1" fill="#9BADB7" />
<rect x="14" y="1" width="1" height="1" fill="#9BADB7" />
<rect x="15" y="1" width="1" height="1" fill="#9BADB7" />
<rect x="16" y="1" width="1" height="1" fill="#9BADB7" />
<rect x="17" y="1" width="1" height="1" fill="#9BADB7" />
<rect x="13" y="2" width="1" height="1" fill="#9BADB7" />
<rect x="14" y="2" width="1" height="1" fill="#9BADB7" />
<rect x="15" y="2" width="1" height="1" fill="#9BADB7" />
<rect x="16" y="2" width="1" height="1" fill="#9BADB7" />
<rect x="17" y="2" width="1" height="1" fill="#9BADB7" />
<rect x="18" y="2" width="1" height="1" fill="#9BADB7" />
<rect x="12" y="3" width="1" height="1" fill="#9BADB7" />
<rect x="13" y="3" width="1" height="1" fill="#9BADB7" />
<rect x="14" y="3" width="1" height="1" fill="#9BADB7" />
<rect x="15" y="3" width="1" height="1" fill="#9BADB7" />
<rect x="16" y="3" width="1" height="1" fill="#9BADB7" />
<rect x="17" y="3" width="1" height="1" fill="#9BADB7" />
<rect x="18" y="3" width="1" height="1" fill="#9BADB7" />
<rect x="19" y="3" width="1" height="1" fill="#9BADB7" />
<rect x="11" y="4" width="1" height="1" fill="#9BADB7" />
<rect x="12" y="4" width="1" height="1" fill="#9BADB7" />
<rect x="13" y="4" width="1" height="1" fill="#9BADB7" />
<rect x="14" y="4" width="1" height="1" fill="#9BADB7" />
<rect x="15" y="4" width="1" height="1" fill="#9BADB7" />
<rect x="16" y="4" width="1" height="1" fill="#9BADB7" />
<rect x="17" y="4" width="1" height="1" fill="#9BADB7" />
<rect x="18" y="4" width="1" height="1" fill="#9BADB7" />
<rect x="19" y="4" width="1" height="1" fill="#9BADB7" />
<rect x="20" y="4" width="1" height="1" fill="#9BADB7" />
<rect x="10" y="5" width="1" height="1" fill="#9BADB7" />
<rect x="11" y="5" width="1" height="1" fill="#9BADB7" />
<rect x="12" y="5" width="1" height="1" fill="#9BADB7" />
<rect x="13" y="5" width="1" height="1" fill="#9BADB7" />
<rect x="14" y="5" width="1" height="1" fill="#9BADB7" />
<rect x="15" y="5" width="1" height="1" fill="#9BADB7" />
<rect x="16" y="5" width="1" height="1" fill="#9BADB7" />
<rect x="17" y="5" width="1" height="1" fill="#9BADB7" />
<rect x="18" y="5" width="1" height="1" fill="#9BADB7" />
<rect x="19" y="5" width="1" height="1" fill="#9BADB7" />
<rect x="20" y="5" width="1" height="1" fill="#9BADB7" />
<rect x="21" y="5" width="1" height="1" fill="#9BADB7" />
<rect x="9" y="6" width="1" height="1" fill="#9BADB7" />
<rect x="10" y="6" width="1" height="1" fill="#9BADB7" />
<rect x="11" y="6" width="1" height="1" fill="#9BADB7" />
<rect x="12" y="6" width="1" height="1" fill="#9BADB7" />
<rect x="13" y="6" width="1" height="1" fill="#9BADB7" />
<rect x="14" y="6" width="1" height="1" fill="#9BADB7" />
<rect x="15" y="6" width="1" height="1" fill="#9BADB7" />
<rect x="16" y="6" width="1" height="1" fill="#9BADB7" />
<rect x="17" y="6" width="1" height="1" fill="#9BADB7" />
<rect x="18" y="6" width="1" height="1" fill="#9BADB7" />
<rect x="19" y="6" width="1" height="1" fill="#9BADB7" />
<rect x="20" y="6" width="1" height="1" fill="#9BADB7" />
<rect x="21" y="6" width="1" height="1" fill="#9BADB7" />
<rect x="22" y="6" width="1" height="1" fill="#9BADB7" />
<rect x="15" y="7" width="1" height="1" fill="#9BADB7" />
<rect x="16" y="7" width="1" height="1" fill="#9BADB7" />
<rect x="15" y="8" width="1" height="1" fill="#9BADB7" />
<rect x="16" y="8" width="1" height="1" fill="#9BADB7" />
<rect x="15" y="9" width="1" height="1" fill="#9BADB7" />
<rect x="16" y="9" width="1" height="1" fill="#9BADB7" />
<rect x="15" y="10" width="1" height="1" fill="#9BADB7" />
<rect x="16" y="10" width="1" height="1" fill="#9BADB7" />
<rect x="15" y="11" width="1" height="1" fill="#9BADB7" />
<rect x="16" y="11" width="1" height="1" fill="#9BADB7" />
<rect x="15" y="12" width="1" height="1" fill="#9BADB7" />
<rect x="16" y="12" width="1" height="1" fill="#9BADB7" />
<rect x="15" y="13" width="1" height="1" fill="#9BADB7" />
<rect x="16" y="13" width="1" height="1" fill="#9BADB7" />
<rect x="15" y="14" width="1" height="1" fill="#9BADB7" />
<rect x="16" y="14" width="1" height="1" fill="#9BADB7" />
<rect x="15" y="15" width="1" height="1" fill="#9BADB7" />
<rect x="16" y="15" width="1" height="1" fill="#9BADB7" />
<rect x="15" y="16" width="1" height="1" fill="#9BADB7" />
<rect x="16" y="16" width="1" height="1" fill="#9BADB7" />
<rect x="15" y="17" width="1" height="1" fill="#9BADB7" />
<rect x="16" y="17" width="1" height="1" fill="#9BADB7" />
<rect x="15" y="18" width="1" height="1" fill="#9BADB7" />
<rect x="16" y="18" width="1" height="1" fill="#9BADB7" />
<rect x="15" y="19" width="1" height="1" fill="#9BADB7" />
<rect x="16" y="19" width="1" height="1" fill="#9BADB7" />
<rect x="15" y="20" width="1" height="1" fill="#9BADB7" />
<rect x="16" y="20" width="1" height="1" fill="#9BADB7" />
<rect x="15" y="21" width="1" height="1" fill="#9BADB7" />
<rect x="16" y="21" width="1" height="1" fill="#9BADB7" />
<rect x="15" y="22" width="1" height="1" fill="#9BADB7" />
<rect x="16" y="22" width="1" height="1" fill="#9BADB7" />
<rect x="15" y="23" width="1" height="1" fill="#9BADB7" />
<rect x="16" y="23" width="1" height="1" fill="#9BADB7" />
<rect x="15" y="24" width="1" height="1" fill="#9BADB7" />
<rect x="16" y="24" width="1" height="1" fill="#9BADB7" />
<rect x="15" y="25" width="1" height="1" fill="#9BADB7" />
<rect x="16" y="25" width="1" height="1" fill="#9BADB7" />
<rect x="15" y="26" width="1" height="1" fill="#9BADB7" />
<rect x="16" y="26" width="1" height="1" fill="#9BADB7" />
<rect x="15" y="27" width="1" height="1" fill="#9BADB7" />
<rect x="16" y="27" width="1" height="1" fill="#9BADB7" />
<rect x="15" y="28" width="1" height="1" fill="#9BADB7" />
<rect x="16" y="28" width="1" height="1" fill="#9BADB7" />
<rect x="15" y="29" width="1" height="1" fill="#9BADB7" />
<rect x="16" y="29" width="1" height="1" fill="#9BADB7" />
<rect x="15" y="30" width="1" height="1" fill="#9BADB7" />
<rect x="16" y="30" width="1" height="1" fill="#9BADB7" />
<rect x="15" y="31" width="1" height="1" fill="#9BADB7" />
<rect x="16" y="31" width="1" height="1" fill="#9BADB7" />
</svg>